<svg width="263" height="92" viewBox="0 0 263 92" fill="none" xmlns="http://www.w3.org/2000/svg">
<path d="M1.01514 51.2781C1.01514 51.2781 9.60052 49.4811 17.8818 34.7814C26.163 20.0816 33.5161 8.48594 33.5161 8.48594C33.5161 8.48594 44.7337 -6.48594 53.7641 8.48594C62.7945 23.4578 80.8624 67.1573 80.8624 67.1573C80.8624 67.1573 90.6018 79.2678 100.351 59.3252C110.101 39.3826 122.39 9.7556 122.39 9.7556C122.39 9.7556 130.858 -6.7588 141.557 11.5519C152.257 29.8626 160.114 59.3252 160.114 59.3252C160.114 59.3252 171.89 97.2331 187.82 70.0319C203.751 42.8306 203.884 41.198 203.884 41.198C203.884 41.198 218.162 17.6391 235.671 44.3797C253.18 71.1204 262.131 71.4248 262.131 71.4248" stroke="#FF9920" stroke-width="2"/>
<path opacity="0.6" fill-rule="evenodd" clip-rule="evenodd" d="M1.01514 51.2782C1.01514 51.2782 9.60052 49.4811 17.8818 34.7814C26.163 20.0816 33.5161 8.48594 33.5161 8.48594C33.5161 8.48594 44.7337 -6.48594 53.7641 8.48594C62.7945 23.4578 80.8624 67.1574 80.8624 67.1574C80.8624 67.1574 90.6018 79.2678 100.351 59.3252C110.101 39.3826 122.39 9.7556 122.39 9.7556C122.39 9.7556 130.858 -6.7588 141.557 11.5519C152.257 29.8626 160.114 59.3252 160.114 59.3252C160.114 59.3252 171.89 97.2332 187.82 70.0319C203.751 42.8306 203.884 41.198 203.884 41.198C203.884 41.198 218.162 17.6391 235.671 44.3797C253.18 71.1204 262.131 71.4248 262.131 71.4248V91.9225H1.01514V51.2782Z" fill="url(#paint0_linear_435_89098)"/>
<defs>
<linearGradient id="paint0_linear_435_89098" x1="1.01514" y1="1" x2="1.01514" y2="91.9225" gradientUnits="userSpaceOnUse">
<stop stop-color="#FF9920"/>
<stop offset="1" stop-color="#EEEEEE" stop-opacity="0.01"/>
</linearGradient>
</defs>
</svg>
