<svg width="572" height="92" viewBox="0 0 572 92" fill="none" xmlns="http://www.w3.org/2000/svg">
<path d="M0.848511 51.2781C0.848511 51.2781 19.6043 49.4811 37.6956 34.7814C55.787 20.0816 71.8505 8.48594 71.8505 8.48594C71.8505 8.48594 96.3568 -6.48594 116.085 8.48594C135.813 23.4578 175.284 67.1573 175.284 67.1573C175.284 67.1573 196.561 79.2678 217.86 59.3252C239.159 39.3826 266.006 9.7556 266.006 9.7556C266.006 9.7556 284.505 -6.7588 307.879 11.5519C331.254 29.8626 348.419 59.3252 348.419 59.3252C348.419 59.3252 374.144 97.2331 408.946 70.0319C443.748 42.8306 444.04 41.198 444.04 41.198C444.04 41.198 475.231 17.6391 513.481 44.3797C551.731 71.1204 571.285 71.4248 571.285 71.4248" stroke="#FF9920" stroke-width="2"/>
<path opacity="0.6" fill-rule="evenodd" clip-rule="evenodd" d="M0.848511 51.2782C0.848511 51.2782 19.6043 49.4811 37.6956 34.7814C55.787 20.0816 71.8505 8.48594 71.8505 8.48594C71.8505 8.48594 96.3568 -6.48594 116.085 8.48594C135.813 23.4578 175.284 67.1574 175.284 67.1574C175.284 67.1574 196.561 79.2678 217.86 59.3252C239.159 39.3826 266.006 9.7556 266.006 9.7556C266.006 9.7556 284.505 -6.7588 307.879 11.5519C331.254 29.8626 348.419 59.3252 348.419 59.3252C348.419 59.3252 374.144 97.2332 408.946 70.0319C443.748 42.8306 444.04 41.198 444.04 41.198C444.04 41.198 475.231 17.6391 513.481 44.3797C551.731 71.1204 571.285 71.4248 571.285 71.4248V91.9225H0.848511V51.2782Z" fill="url(#paint0_linear_437_89110)"/>
<defs>
<linearGradient id="paint0_linear_437_89110" x1="0.848511" y1="1" x2="0.848511" y2="91.9225" gradientUnits="userSpaceOnUse">
<stop stop-color="#FF9920"/>
<stop offset="1" stop-color="#EEEEEE" stop-opacity="0.01"/>
</linearGradient>
</defs>
</svg>
