<svg width="361" height="92" viewBox="0 0 361 92" fill="none" xmlns="http://www.w3.org/2000/svg">
<path d="M0.643921 51.2781C0.643921 51.2781 12.4653 49.4811 23.868 34.7814C35.2706 20.0816 45.3952 8.48594 45.3952 8.48594C45.3952 8.48594 60.8411 -6.48594 73.2752 8.48594C85.7093 23.4578 110.587 67.1573 110.587 67.1573C110.587 67.1573 123.998 79.2678 137.422 59.3252C150.846 39.3826 167.768 9.7556 167.768 9.7556C167.768 9.7556 179.427 -6.7588 194.16 11.5519C208.893 29.8626 219.711 59.3252 219.711 59.3252C219.711 59.3252 235.925 97.2331 257.86 70.0319C279.795 42.8306 279.979 41.198 279.979 41.198C279.979 41.198 299.638 17.6391 323.747 44.3797C347.855 71.1204 360.18 71.4248 360.18 71.4248" stroke="#FF9920" stroke-width="2"/>
<path opacity="0.6" fill-rule="evenodd" clip-rule="evenodd" d="M0.643921 51.2782C0.643921 51.2782 12.4653 49.4811 23.868 34.7814C35.2706 20.0816 45.3952 8.48594 45.3952 8.48594C45.3952 8.48594 60.8411 -6.48594 73.2752 8.48594C85.7093 23.4578 110.587 67.1574 110.587 67.1574C110.587 67.1574 123.998 79.2678 137.422 59.3252C150.846 39.3826 167.768 9.7556 167.768 9.7556C167.768 9.7556 179.427 -6.7588 194.16 11.5519C208.893 29.8626 219.711 59.3252 219.711 59.3252C219.711 59.3252 235.925 97.2332 257.86 70.0319C279.795 42.8306 279.979 41.198 279.979 41.198C279.979 41.198 299.638 17.6391 323.747 44.3797C347.855 71.1204 360.18 71.4248 360.18 71.4248V91.9225H0.643921V51.2782Z" fill="url(#paint0_linear_437_89104)"/>
<defs>
<linearGradient id="paint0_linear_437_89104" x1="0.643921" y1="1" x2="0.643921" y2="91.9225" gradientUnits="userSpaceOnUse">
<stop stop-color="#FF9920"/>
<stop offset="1" stop-color="#EEEEEE" stop-opacity="0.01"/>
</linearGradient>
</defs>
</svg>
