<svg width="263" height="95" viewBox="0 0 263 95" fill="none" xmlns="http://www.w3.org/2000/svg">
<path d="M1 73.3741C1 73.3741 12.2205 70.0184 20.5167 60.432C28.8129 50.8456 38.4877 41.8698 55.8122 46.7772C73.1367 51.6846 77.7354 53.1323 77.7354 53.1323C77.7354 53.1323 94.0366 59.2323 105.106 42.2033C116.776 25.6331 126.424 20.1353 126.424 20.1353C126.424 20.1353 136.211 15.4664 145.48 25.6042C154.75 35.742 163.96 44.892 163.96 44.892C163.96 44.892 177.397 55.8334 185.78 42.2033C194.163 28.5733 204.016 12.9962 204.016 12.9962C204.016 12.9962 213.906 -4.99809 233.822 3.99904C253.737 12.9962 262.19 12.9962 262.19 12.9962" stroke="#7466F0" stroke-width="2"/>
<g opacity="0.6">
<path fill-rule="evenodd" clip-rule="evenodd" d="M1 73.3741C1 73.3741 12.2205 70.0183 20.5167 60.432C28.8129 50.8456 38.4877 41.8698 55.8122 46.7772C73.1367 51.6846 77.7354 53.1323 77.7354 53.1323C77.7354 53.1323 94.0366 59.2323 105.106 42.2033C116.776 25.6331 126.424 20.1353 126.424 20.1353C126.424 20.1353 136.211 15.4664 145.48 25.6042C154.75 35.742 163.96 44.892 163.96 44.892C163.96 44.892 177.397 55.8334 185.78 42.2033C194.163 28.5733 204.016 12.9962 204.016 12.9962C204.016 12.9962 213.906 -4.99809 233.822 3.99904C253.737 12.9962 262.19 12.9962 262.19 12.9962V88.9086C262.19 92.2223 259.504 94.9086 256.19 94.9086H7C3.68629 94.9086 1 92.2223 1 88.9086V73.3741Z" fill="url(#paint0_linear_435_89095)"/>
<path fill-rule="evenodd" clip-rule="evenodd" d="M1 73.3741C1 73.3741 12.2205 70.0183 20.5167 60.432C28.8129 50.8456 38.4877 41.8698 55.8122 46.7772C73.1367 51.6846 77.7354 53.1323 77.7354 53.1323C77.7354 53.1323 94.0366 59.2323 105.106 42.2033C116.776 25.6331 126.424 20.1353 126.424 20.1353C126.424 20.1353 136.211 15.4664 145.48 25.6042C154.75 35.742 163.96 44.892 163.96 44.892C163.96 44.892 177.397 55.8334 185.78 42.2033C194.163 28.5733 204.016 12.9962 204.016 12.9962C204.016 12.9962 213.906 -4.99809 233.822 3.99904C253.737 12.9962 262.19 12.9962 262.19 12.9962V88.9086C262.19 92.2223 259.504 94.9086 256.19 94.9086H7C3.68629 94.9086 1 92.2223 1 88.9086V73.3741Z" fill="url(#paint1_linear_435_89095)"/>
</g>
<defs>
<linearGradient id="paint0_linear_435_89095" x1="1" y1="1" x2="1" y2="94.9086" gradientUnits="userSpaceOnUse">
<stop stop-color="#7466F0"/>
<stop offset="1" stop-color="white" stop-opacity="0.01"/>
</linearGradient>
<linearGradient id="paint1_linear_435_89095" x1="1" y1="1" x2="1" y2="94.9086" gradientUnits="userSpaceOnUse">
<stop offset="0.0114183" stop-color="white" stop-opacity="0.01"/>
<stop offset="1" stop-opacity="0.01"/>
</linearGradient>
</defs>
</svg>
