<svg width="572" height="95" viewBox="0 0 572 95" fill="none" xmlns="http://www.w3.org/2000/svg">
<path d="M0.848511 73.3741C0.848511 73.3741 25.3609 70.0184 43.4849 60.432C61.609 50.8456 82.7448 41.8698 120.592 46.7772C158.439 51.6846 168.486 53.1323 168.486 53.1323C168.486 53.1323 204.098 59.2323 228.281 42.2033C253.775 25.6331 274.852 20.1353 274.852 20.1353C274.852 20.1353 296.232 15.4664 316.482 25.6042C336.733 35.742 356.853 44.892 356.853 44.892C356.853 44.892 386.208 55.8334 404.522 42.2033C422.835 28.5733 444.361 12.9962 444.361 12.9962C444.361 12.9962 465.966 -4.99809 509.474 3.99904C552.982 12.9962 571.449 12.9962 571.449 12.9962" stroke="#7466F0" stroke-width="2"/>
<g opacity="0.6">
<path fill-rule="evenodd" clip-rule="evenodd" d="M0.848511 73.3741C0.848511 73.3741 25.3609 70.0183 43.4849 60.432C61.609 50.8456 82.7448 41.8698 120.592 46.7772C158.439 51.6846 168.486 53.1323 168.486 53.1323C168.486 53.1323 204.098 59.2323 228.281 42.2033C253.775 25.6331 274.852 20.1353 274.852 20.1353C274.852 20.1353 296.232 15.4664 316.482 25.6042C336.733 35.742 356.853 44.892 356.853 44.892C356.853 44.892 386.208 55.8334 404.522 42.2033C422.835 28.5733 444.361 12.9962 444.361 12.9962C444.361 12.9962 465.966 -4.99809 509.474 3.99904C552.982 12.9962 571.449 12.9962 571.449 12.9962V88.9086C571.449 92.2223 568.762 94.9086 565.449 94.9086H6.84853C3.53482 94.9086 0.848511 92.2223 0.848511 88.9086V73.3741Z" fill="url(#paint0_linear_437_89107)"/>
<path fill-rule="evenodd" clip-rule="evenodd" d="M0.848511 73.3741C0.848511 73.3741 25.3609 70.0183 43.4849 60.432C61.609 50.8456 82.7448 41.8698 120.592 46.7772C158.439 51.6846 168.486 53.1323 168.486 53.1323C168.486 53.1323 204.098 59.2323 228.281 42.2033C253.775 25.6331 274.852 20.1353 274.852 20.1353C274.852 20.1353 296.232 15.4664 316.482 25.6042C336.733 35.742 356.853 44.892 356.853 44.892C356.853 44.892 386.208 55.8334 404.522 42.2033C422.835 28.5733 444.361 12.9962 444.361 12.9962C444.361 12.9962 465.966 -4.99809 509.474 3.99904C552.982 12.9962 571.449 12.9962 571.449 12.9962V88.9086C571.449 92.2223 568.762 94.9086 565.449 94.9086H6.84853C3.53482 94.9086 0.848511 92.2223 0.848511 88.9086V73.3741Z" fill="url(#paint1_linear_437_89107)"/>
</g>
<defs>
<linearGradient id="paint0_linear_437_89107" x1="0.848511" y1="1" x2="0.848511" y2="94.9086" gradientUnits="userSpaceOnUse">
<stop stop-color="#7466F0"/>
<stop offset="1" stop-color="white" stop-opacity="0.01"/>
</linearGradient>
<linearGradient id="paint1_linear_437_89107" x1="0.848511" y1="1" x2="0.848511" y2="94.9086" gradientUnits="userSpaceOnUse">
<stop offset="0.0114183" stop-color="white" stop-opacity="0.01"/>
<stop offset="1" stop-opacity="0.01"/>
</linearGradient>
</defs>
</svg>
