<svg width="362" height="95" viewBox="0 0 362 95" fill="none" xmlns="http://www.w3.org/2000/svg">
<path d="M0.640137 73.3741C0.640137 73.3741 16.133 70.0184 27.5882 60.432C39.0433 50.8456 52.402 41.8698 76.3232 46.7772C100.244 51.6846 106.594 53.1323 106.594 53.1323C106.594 53.1323 129.102 59.2323 144.387 42.2033C160.5 25.6331 173.822 20.1353 173.822 20.1353C173.822 20.1353 187.335 15.4664 200.134 25.6042C212.933 35.742 225.65 44.892 225.65 44.892C225.65 44.892 244.204 55.8334 255.779 42.2033C267.353 28.5733 280.958 12.9962 280.958 12.9962C280.958 12.9962 294.614 -4.99809 322.113 3.99904C349.612 12.9962 361.284 12.9962 361.284 12.9962" stroke="#7466F0" stroke-width="2"/>
<g opacity="0.6">
<path fill-rule="evenodd" clip-rule="evenodd" d="M0.640137 73.3741C0.640137 73.3741 16.133 70.0183 27.5882 60.432C39.0433 50.8456 52.402 41.8698 76.3232 46.7772C100.244 51.6846 106.594 53.1323 106.594 53.1323C106.594 53.1323 129.102 59.2323 144.387 42.2033C160.5 25.6331 173.822 20.1353 173.822 20.1353C173.822 20.1353 187.335 15.4664 200.134 25.6042C212.933 35.742 225.65 44.892 225.65 44.892C225.65 44.892 244.204 55.8334 255.779 42.2033C267.353 28.5733 280.958 12.9962 280.958 12.9962C280.958 12.9962 294.614 -4.99809 322.113 3.99904C349.612 12.9962 361.284 12.9962 361.284 12.9962V88.9086C361.284 92.2223 358.597 94.9086 355.284 94.9086H6.64013C3.32642 94.9086 0.640137 92.2223 0.640137 88.9086V73.3741Z" fill="url(#paint0_linear_437_89101)"/>
<path fill-rule="evenodd" clip-rule="evenodd" d="M0.640137 73.3741C0.640137 73.3741 16.133 70.0183 27.5882 60.432C39.0433 50.8456 52.402 41.8698 76.3232 46.7772C100.244 51.6846 106.594 53.1323 106.594 53.1323C106.594 53.1323 129.102 59.2323 144.387 42.2033C160.5 25.6331 173.822 20.1353 173.822 20.1353C173.822 20.1353 187.335 15.4664 200.134 25.6042C212.933 35.742 225.65 44.892 225.65 44.892C225.65 44.892 244.204 55.8334 255.779 42.2033C267.353 28.5733 280.958 12.9962 280.958 12.9962C280.958 12.9962 294.614 -4.99809 322.113 3.99904C349.612 12.9962 361.284 12.9962 361.284 12.9962V88.9086C361.284 92.2223 358.597 94.9086 355.284 94.9086H6.64013C3.32642 94.9086 0.640137 92.2223 0.640137 88.9086V73.3741Z" fill="url(#paint1_linear_437_89101)"/>
</g>
<defs>
<linearGradient id="paint0_linear_437_89101" x1="0.640137" y1="1" x2="0.640137" y2="94.9086" gradientUnits="userSpaceOnUse">
<stop stop-color="#7466F0"/>
<stop offset="1" stop-color="white" stop-opacity="0.01"/>
</linearGradient>
<linearGradient id="paint1_linear_437_89101" x1="0.640137" y1="1" x2="0.640137" y2="94.9086" gradientUnits="userSpaceOnUse">
<stop offset="0.0114183" stop-color="white" stop-opacity="0.01"/>
<stop offset="1" stop-opacity="0.01"/>
</linearGradient>
</defs>
</svg>
