<svg width="17" height="14" viewBox="0 0 17 14" fill="none" xmlns="http://www.w3.org/2000/svg">
<path d="M13.3396 9.15817C13.2045 9.27484 13.0694 9.33317 12.8667 9.33317C12.664 9.33317 12.5289 9.27484 12.3937 9.15817L8.8129 6.0665L5.23207 9.15817C4.96181 9.3915 4.55644 9.3915 4.28618 9.15817C4.01593 8.92484 4.01593 8.57484 4.28618 8.3415L8.33996 4.8415C8.61021 4.60817 9.01559 4.60817 9.28584 4.8415L13.3396 8.3415C13.6099 8.57484 13.6099 8.92484 13.3396 9.15817Z" fill="black"/>
<mask id="mask0_0_4339" style="mask-type:alpha" maskUnits="userSpaceOnUse" x="4" y="4" width="10" height="6">
<path d="M13.3396 9.15817C13.2045 9.27484 13.0694 9.33317 12.8667 9.33317C12.664 9.33317 12.5289 9.27484 12.3937 9.15817L8.8129 6.0665L5.23207 9.15817C4.96181 9.3915 4.55644 9.3915 4.28618 9.15817C4.01593 8.92484 4.01593 8.57484 4.28618 8.3415L8.33996 4.8415C8.61021 4.60817 9.01559 4.60817 9.28584 4.8415L13.3396 8.3415C13.6099 8.57484 13.6099 8.92484 13.3396 9.15817Z" fill="white"/>
</mask>
<g mask="url(#mask0_0_4339)">
<rect x="0.705566" width="16.2151" height="14" fill="#BABFC7"/>
</g>
</svg>
