<svg width="17" height="14" viewBox="0 0 17 14" fill="none" xmlns="http://www.w3.org/2000/svg">
<path d="M13.3396 5.65817L9.28584 9.15817C9.15072 9.27484 9.01559 9.33317 8.8129 9.33317C8.61021 9.33317 8.47509 9.27484 8.33996 9.15817L4.28618 5.65817C4.01593 5.42484 4.01593 5.07484 4.28618 4.8415C4.55644 4.60817 4.96181 4.60817 5.23207 4.8415L8.8129 7.93317L12.3937 4.8415C12.664 4.60817 13.0694 4.60817 13.3396 4.8415C13.6099 5.07484 13.6099 5.42484 13.3396 5.65817Z" fill="black"/>
<mask id="mask0_0_4338" style="mask-type:alpha" maskUnits="userSpaceOnUse" x="4" y="4" width="10" height="6">
<path d="M13.3396 5.65817L9.28584 9.15817C9.15072 9.27484 9.01559 9.33317 8.8129 9.33317C8.61021 9.33317 8.47509 9.27484 8.33996 9.15817L4.28618 5.65817C4.01593 5.42484 4.01593 5.07484 4.28618 4.8415C4.55644 4.60817 4.96181 4.60817 5.23207 4.8415L8.8129 7.93317L12.3937 4.8415C12.664 4.60817 13.0694 4.60817 13.3396 4.8415C13.6099 5.07484 13.6099 5.42484 13.3396 5.65817Z" fill="white"/>
</mask>
<g mask="url(#mask0_0_4338)">
<rect x="0.705566" width="16.2151" height="14" fill="#B4B7BD"/>
</g>
</svg>
