<svg width="18" height="18" viewBox="0 0 18 18" fill="none" xmlns="http://www.w3.org/2000/svg">
<path fill-rule="evenodd" clip-rule="evenodd" d="M15.675 5.7C15.6375 5.6625 15.6187 5.625 15.6 5.5875C15.5813 5.55 15.5625 5.5125 15.525 5.475L11.025 0.975C10.95 0.9 10.875 0.825 10.8 0.825C10.725 0.75 10.575 0.75 10.5 0.75H4.5C3.225 0.75 2.25 1.725 2.25 3V15C2.25 16.275 3.225 17.25 4.5 17.25H13.5C14.775 17.25 15.75 16.275 15.75 15V6C15.75 5.925 15.75 5.775 15.675 5.7ZM11.25 3.3L13.2 5.25H11.25V3.3ZM4.5 15.75H13.5C13.95 15.75 14.25 15.45 14.25 15V6.75H10.5C10.05 6.75 9.75 6.45 9.75 6V2.25H4.5C4.05 2.25 3.75 2.55 3.75 3V15C3.75 15.45 4.05 15.75 4.5 15.75Z" fill="black"/>
<mask id="mask0_363_72280" style="mask-type:alpha" maskUnits="userSpaceOnUse" x="2" y="0" width="14" height="18">
<path fill-rule="evenodd" clip-rule="evenodd" d="M15.675 5.7C15.6375 5.6625 15.6187 5.625 15.6 5.5875C15.5813 5.55 15.5625 5.5125 15.525 5.475L11.025 0.975C10.95 0.9 10.875 0.825 10.8 0.825C10.725 0.75 10.575 0.75 10.5 0.75H4.5C3.225 0.75 2.25 1.725 2.25 3V15C2.25 16.275 3.225 17.25 4.5 17.25H13.5C14.775 17.25 15.75 16.275 15.75 15V6C15.75 5.925 15.75 5.775 15.675 5.7ZM11.25 3.3L13.2 5.25H11.25V3.3ZM4.5 15.75H13.5C13.95 15.75 14.25 15.45 14.25 15V6.75H10.5C10.05 6.75 9.75 6.45 9.75 6V2.25H4.5C4.05 2.25 3.75 2.55 3.75 3V15C3.75 15.45 4.05 15.75 4.5 15.75Z" fill="white"/>
</mask>
<g mask="url(#mask0_363_72280)">
<rect width="18" height="18" fill="#B4B7BD"/>
</g>
</svg>
