<svg width="19" height="19" viewBox="0 0 19 19" fill="none" xmlns="http://www.w3.org/2000/svg">
<path d="M7.72327 1.58238C7.68514 1.3879 7.8119 1.19931 8.00637 1.16117C8.20084 1.12304 8.38945 1.24981 8.42759 1.44427L9.02197 4.47535C9.06011 4.66987 8.93338 4.85842 8.73887 4.89656C8.54437 4.9347 8.3558 4.80796 8.31766 4.61346L7.72327 1.58238Z" stroke="white" stroke-width="1.05579"/>
<path d="M5.39504 6.88461L5.39507 6.88463C5.55955 6.99519 5.78249 6.95148 5.89304 6.78698C6.00362 6.62243 5.95987 6.39945 5.79539 6.2889L3.23181 4.56591C3.06734 4.45537 2.84436 4.49906 2.73376 4.66357L5.39504 6.88461ZM5.39504 6.88461L2.83142 5.16159C2.66694 5.05104 2.62321 4.82808 2.73374 4.6636L5.39504 6.88461Z" fill="white" stroke="white" stroke-width="1.05579"/>
<path d="M4.69464 9.33479L1.66352 9.92918C1.18292 10.0234 0.869731 10.4894 0.963975 10.97C1.05822 11.4506 1.5242 11.7638 2.0048 11.6695L5.03591 11.0752C5.51651 10.9809 5.8297 10.5149 5.73546 10.0343C5.64118 9.55375 5.1752 9.24056 4.69464 9.33479Z" fill="white"/>
<path d="M7.4023 12.5436C6.99583 12.2704 6.44487 12.3784 6.17169 12.7849L4.44866 15.3485C4.17548 15.755 4.28352 16.3059 4.68998 16.5791C5.09648 16.8523 5.64744 16.7443 5.92063 16.3378L7.64363 13.7742C7.91681 13.3678 7.80877 12.8168 7.4023 12.5436Z" fill="white"/>
<path d="M10.3552 13.1393C9.87467 13.2335 9.56144 13.6995 9.65569 14.1801L10.2501 17.2112C10.3443 17.6918 10.8103 18.005 11.2909 17.9107C11.7715 17.8165 12.0847 17.3505 11.9904 16.8699L11.3961 13.8388C11.3018 13.3582 10.8358 13.045 10.3552 13.1393Z" fill="white"/>
<path d="M16.6587 12.9542L14.0951 11.2312C13.6886 10.958 13.1377 11.066 12.8645 11.4725C12.5913 11.879 12.6993 12.43 13.1058 12.7031L15.6694 14.4261C16.0759 14.6993 16.6268 14.5913 16.9 14.1848C17.1732 13.7784 17.0652 13.2274 16.6587 12.9542Z" fill="white"/>
<path d="M17.1908 6.88438L14.1596 7.47877C13.6791 7.57301 13.3658 8.03896 13.4601 8.5196C13.5543 9.00019 14.0203 9.31338 14.5009 9.21913L17.532 8.62474C18.0126 8.5305 18.3258 8.06452 18.2316 7.58392C18.1373 7.10333 17.6713 6.79014 17.1908 6.88438Z" fill="white"/>
<path d="M14.5057 1.97476C14.0992 1.70158 13.5483 1.80962 13.2751 2.21608L11.552 4.77966C11.2789 5.18613 11.3869 5.73709 11.7934 6.01031C12.1999 6.28353 12.7508 6.17549 13.024 5.76899L14.747 3.20537C15.0202 2.79891 14.9121 2.24795 14.5057 1.97476Z" fill="white"/>
</svg>
