<svg width="24" height="24" viewBox="0 0 24 24" fill="none" xmlns="http://www.w3.org/2000/svg">
<path d="M11.2905 1.20946C11.2905 0.817637 11.6082 0.5 12 0.5C12.3918 0.5 12.7094 0.817674 12.7094 1.20946V5.42233C12.7094 5.8142 12.3918 6.13178 12 6.13178C11.6082 6.13178 11.2905 5.81416 11.2905 5.42233V1.20946Z" stroke="#666666"/>
<path d="M6.84742 7.85024L6.84744 7.85026C7.12449 8.12734 7.57366 8.12734 7.85071 7.85026C8.12781 7.57314 8.12778 7.12392 7.85073 6.84688L4.8718 3.86795C4.59476 3.59091 4.14556 3.59088 3.86844 3.86795L6.84742 7.85024ZM6.84742 7.85024L3.86844 4.87126C3.59139 4.59421 3.59138 4.14502 3.86842 3.86797L6.84742 7.85024Z" fill="#666666" stroke="#666666"/>
<path d="M5.42238 10.791H1.20946C0.541481 10.791 0 11.3325 0 12.0005C0 12.6685 0.541481 13.2099 1.20946 13.2099H5.42238C6.09035 13.2099 6.63183 12.6685 6.63183 12.0005C6.63178 11.3325 6.0903 10.791 5.42238 10.791Z" fill="#666666"/>
<path d="M8.20429 15.7957C7.73197 15.3233 6.96619 15.3233 6.49387 15.7957L3.51488 18.7747C3.04257 19.247 3.04257 20.0128 3.51488 20.4851C3.98725 20.9574 4.75303 20.9574 5.22535 20.4851L8.20429 17.5061C8.6766 17.0338 8.6766 16.2681 8.20429 15.7957Z" fill="#666666"/>
<path d="M12 17.3682C11.3321 17.3682 10.7905 17.9096 10.7905 18.5776V22.7905C10.7905 23.4585 11.332 23.9999 12 23.9999C12.668 23.9999 13.2094 23.4585 13.2094 22.7905V18.5776C13.2094 17.9097 12.6679 17.3682 12 17.3682Z" fill="#666666"/>
<path d="M20.485 18.7747L17.5061 15.7957C17.0337 15.3233 16.268 15.3233 15.7956 15.7957C15.3233 16.2681 15.3233 17.0338 15.7956 17.5061L18.7746 20.4851C19.2469 20.9574 20.0127 20.9574 20.485 20.4851C20.9574 20.0128 20.9574 19.2469 20.485 18.7747Z" fill="#666666"/>
<path d="M22.7906 10.791H18.5777C17.9097 10.791 17.3682 11.3324 17.3682 12.0005C17.3682 12.6685 17.9096 13.2099 18.5777 13.2099H22.7906C23.4586 13.2099 24 12.6685 24 12.0005C24 11.3325 23.4585 10.791 22.7906 10.791Z" fill="#666666"/>
<path d="M20.485 3.51439C20.0127 3.04208 19.2469 3.04208 18.7746 3.51439L15.7956 6.49333C15.3233 6.96564 15.3233 7.73142 15.7956 8.20379C16.268 8.67616 17.0337 8.67616 17.5061 8.20379L20.485 5.22481C20.9574 4.75249 20.9574 3.98671 20.485 3.51439Z" fill="#666666"/>
</svg>
