<svg width="28" height="28" viewBox="0 0 28 28" fill="none" xmlns="http://www.w3.org/2000/svg">
<path fill-rule="evenodd" clip-rule="evenodd" d="M23.3332 9.31393C23.3332 4.19127 19.1332 0 13.9998 0C8.8665 0 4.6665 4.19127 4.6665 9.31393C4.6665 12.341 6.0665 15.0187 8.28317 16.6486L6.99984 26.6611C6.88317 27.1268 7.1165 27.5925 7.4665 27.8254C7.8165 28.0582 8.28317 28.0582 8.74984 27.8254L13.9998 24.6819L19.2498 27.8254C19.3665 27.9418 19.5998 27.9418 19.8332 27.9418C20.0665 27.9418 20.2998 27.8254 20.4165 27.7089C20.7665 27.4761 20.9998 27.0104 20.8832 26.5447L19.5998 16.6486C21.9332 15.0187 23.3332 12.341 23.3332 9.31393ZM6.99984 9.31393C6.99984 5.47193 10.1498 2.32848 13.9998 2.32848C17.8498 2.32848 20.9998 5.47193 20.9998 9.31393C20.9998 13.1559 17.8498 16.2994 13.9998 16.2994C10.1498 16.2994 6.99984 13.1559 6.99984 9.31393ZM14.5832 22.3534L18.3165 24.5655L17.4998 17.9293C16.4498 18.395 15.2832 18.6279 13.9998 18.6279C12.7165 18.6279 11.5498 18.395 10.4998 17.9293L9.68317 24.5655L13.4165 22.3534C13.7665 22.1206 14.2332 22.1206 14.5832 22.3534Z" fill="black"/>
<mask id="mask0_425_37048" style="mask-type:alpha" maskUnits="userSpaceOnUse" x="4" y="0" width="20" height="28">
<path fill-rule="evenodd" clip-rule="evenodd" d="M23.3332 9.31393C23.3332 4.19127 19.1332 0 13.9998 0C8.8665 0 4.6665 4.19127 4.6665 9.31393C4.6665 12.341 6.0665 15.0187 8.28317 16.6486L6.99984 26.6611C6.88317 27.1268 7.1165 27.5925 7.4665 27.8254C7.8165 28.0582 8.28317 28.0582 8.74984 27.8254L13.9998 24.6819L19.2498 27.8254C19.3665 27.9418 19.5998 27.9418 19.8332 27.9418C20.0665 27.9418 20.2998 27.8254 20.4165 27.7089C20.7665 27.4761 20.9998 27.0104 20.8832 26.5447L19.5998 16.6486C21.9332 15.0187 23.3332 12.341 23.3332 9.31393ZM6.99984 9.31393C6.99984 5.47193 10.1498 2.32848 13.9998 2.32848C17.8498 2.32848 20.9998 5.47193 20.9998 9.31393C20.9998 13.1559 17.8498 16.2994 13.9998 16.2994C10.1498 16.2994 6.99984 13.1559 6.99984 9.31393ZM14.5832 22.3534L18.3165 24.5655L17.4998 17.9293C16.4498 18.395 15.2832 18.6279 13.9998 18.6279C12.7165 18.6279 11.5498 18.395 10.4998 17.9293L9.68317 24.5655L13.4165 22.3534C13.7665 22.1206 14.2332 22.1206 14.5832 22.3534Z" fill="white"/>
</mask>
<g mask="url(#mask0_425_37048)">
<rect width="28" height="28" fill="white"/>
</g>
</svg>
