<svg width="22" height="18" viewBox="0 0 22 18" fill="none" xmlns="http://www.w3.org/2000/svg">
<path fill-rule="evenodd" clip-rule="evenodd" d="M11.0545 5.25C12.0099 5.25 12.7916 4.575 12.7916 3.75C12.7916 2.925 12.0099 2.25 11.0545 2.25C10.0991 2.25 9.31738 2.925 9.31738 3.75C9.31738 4.575 10.0991 5.25 11.0545 5.25ZM12.7916 9C12.7916 9.825 12.0099 10.5 11.0545 10.5C10.0991 10.5 9.31738 9.825 9.31738 9C9.31738 8.175 10.0991 7.5 11.0545 7.5C12.0099 7.5 12.7916 8.175 12.7916 9ZM9.31738 14.25C9.31738 13.425 10.0991 12.75 11.0545 12.75C12.0099 12.75 12.7916 13.425 12.7916 14.25C12.7916 15.075 12.0099 15.75 11.0545 15.75C10.0991 15.75 9.31738 15.075 9.31738 14.25Z" fill="black"/>
<mask id="mask0_0_4235" style="mask-type:alpha" maskUnits="userSpaceOnUse" x="9" y="2" width="4" height="14">
<path fill-rule="evenodd" clip-rule="evenodd" d="M11.0545 5.25C12.0099 5.25 12.7916 4.575 12.7916 3.75C12.7916 2.925 12.0099 2.25 11.0545 2.25C10.0991 2.25 9.31738 2.925 9.31738 3.75C9.31738 4.575 10.0991 5.25 11.0545 5.25ZM12.7916 9C12.7916 9.825 12.0099 10.5 11.0545 10.5C10.0991 10.5 9.31738 9.825 9.31738 9C9.31738 8.175 10.0991 7.5 11.0545 7.5C12.0099 7.5 12.7916 8.175 12.7916 9ZM9.31738 14.25C9.31738 13.425 10.0991 12.75 11.0545 12.75C12.0099 12.75 12.7916 13.425 12.7916 14.25C12.7916 15.075 12.0099 15.75 11.0545 15.75C10.0991 15.75 9.31738 15.075 9.31738 14.25Z" fill="white"/>
</mask>
<g mask="url(#mask0_0_4235)">
<rect x="0.631836" width="20.8455" height="18" fill="#B4B7BD"/>
</g>
</svg>
