<svg width="20" height="20" viewBox="0 0 20 20" fill="none" xmlns="http://www.w3.org/2000/svg">
<path fill-rule="evenodd" clip-rule="evenodd" d="M19.1668 14.1666C19.1668 14.6666 18.8335 15 18.3335 15H1.66683C1.16683 15 0.833496 14.6666 0.833496 14.1666C0.833496 13.6666 1.16683 13.3333 1.66683 13.3333C2.5835 13.3333 3.3335 12.5833 3.3335 11.6666V7.49998C3.3335 3.83331 6.3335 0.833313 10.0002 0.833313C13.6668 0.833313 16.6668 3.83331 16.6668 7.49998V11.6666C16.6668 12.5833 17.4168 13.3333 18.3335 13.3333C18.8335 13.3333 19.1668 13.6666 19.1668 14.1666ZM12.1668 17.9166C11.6668 18.75 10.8335 19.1666 10.0002 19.1666C9.5835 19.1666 9.16683 19.0833 8.75016 18.8333C8.3335 18.5833 8.0835 18.3333 7.8335 17.9166C7.5835 17.5 7.75016 17 8.16683 16.75C8.5835 16.5 9.0835 16.6666 9.3335 17.0833C9.35873 17.1085 9.38395 17.1414 9.41149 17.1773L9.4115 17.1773C9.47493 17.2599 9.55063 17.3585 9.66683 17.4166C10.0835 17.6666 10.5835 17.5 10.8335 17.0833C11.0835 16.6666 11.5835 16.5833 12.0002 16.75C12.4168 16.9166 12.4168 17.5 12.1668 17.9166ZM15.0002 11.6666C15.0002 12.25 15.1668 12.8333 15.4168 13.3333H4.5835C4.8335 12.8333 5.00016 12.25 5.00016 11.6666V7.49998C5.00016 4.74998 7.25016 2.49998 10.0002 2.49998C12.7502 2.49998 15.0002 4.74998 15.0002 7.49998V11.6666Z" fill="black"/>
<mask id="mask0_402_38881" style="mask-type:alpha" maskUnits="userSpaceOnUse" x="0" y="0" width="20" height="20">
<path fill-rule="evenodd" clip-rule="evenodd" d="M19.1668 14.1666C19.1668 14.6666 18.8335 15 18.3335 15H1.66683C1.16683 15 0.833496 14.6666 0.833496 14.1666C0.833496 13.6666 1.16683 13.3333 1.66683 13.3333C2.5835 13.3333 3.3335 12.5833 3.3335 11.6666V7.49998C3.3335 3.83331 6.3335 0.833313 10.0002 0.833313C13.6668 0.833313 16.6668 3.83331 16.6668 7.49998V11.6666C16.6668 12.5833 17.4168 13.3333 18.3335 13.3333C18.8335 13.3333 19.1668 13.6666 19.1668 14.1666ZM12.1668 17.9166C11.6668 18.75 10.8335 19.1666 10.0002 19.1666C9.5835 19.1666 9.16683 19.0833 8.75016 18.8333C8.3335 18.5833 8.0835 18.3333 7.8335 17.9166C7.5835 17.5 7.75016 17 8.16683 16.75C8.5835 16.5 9.0835 16.6666 9.3335 17.0833C9.35873 17.1085 9.38395 17.1414 9.41149 17.1773L9.4115 17.1773C9.47493 17.2599 9.55063 17.3585 9.66683 17.4166C10.0835 17.6666 10.5835 17.5 10.8335 17.0833C11.0835 16.6666 11.5835 16.5833 12.0002 16.75C12.4168 16.9166 12.4168 17.5 12.1668 17.9166ZM15.0002 11.6666C15.0002 12.25 15.1668 12.8333 15.4168 13.3333H4.5835C4.8335 12.8333 5.00016 12.25 5.00016 11.6666V7.49998C5.00016 4.74998 7.25016 2.49998 10.0002 2.49998C12.7502 2.49998 15.0002 4.74998 15.0002 7.49998V11.6666Z" fill="white"/>
</mask>
<g mask="url(#mask0_402_38881)">
<rect width="20" height="20" fill="#B4B7BD"/>
</g>
</svg>
