<svg width="20" height="20" viewBox="0 0 20 20" fill="none" xmlns="http://www.w3.org/2000/svg">
<path fill-rule="evenodd" clip-rule="evenodd" d="M14.3332 13.1667L18.0832 16.9167C18.4165 17.25 18.4165 17.75 18.0832 18.0834C17.9165 18.25 17.6665 18.3334 17.4998 18.3334C17.3332 18.3334 17.0832 18.25 16.9165 18.0834L13.1665 14.3334C11.9165 15.25 10.4165 15.8334 8.74984 15.8334C4.83317 15.8334 1.6665 12.6667 1.6665 8.75002C1.6665 4.83335 4.83317 1.66669 8.74984 1.66669C12.6665 1.66669 15.8332 4.83335 15.8332 8.75002C15.8332 10.4167 15.2498 12 14.3332 13.1667ZM8.74984 3.33335C5.74984 3.33335 3.33317 5.75002 3.33317 8.75002C3.33317 11.75 5.74984 14.1667 8.74984 14.1667C10.2498 14.1667 11.5832 13.5834 12.5832 12.5834C13.5832 11.5834 14.1665 10.25 14.1665 8.75002C14.1665 5.75002 11.7498 3.33335 8.74984 3.33335Z" fill="black"/>
<mask id="mask0_402_38963" style="mask-type:alpha" maskUnits="userSpaceOnUse" x="1" y="1" width="18" height="18">
<path fill-rule="evenodd" clip-rule="evenodd" d="M14.3332 13.1667L18.0832 16.9167C18.4165 17.25 18.4165 17.75 18.0832 18.0834C17.9165 18.25 17.6665 18.3334 17.4998 18.3334C17.3332 18.3334 17.0832 18.25 16.9165 18.0834L13.1665 14.3334C11.9165 15.25 10.4165 15.8334 8.74984 15.8334C4.83317 15.8334 1.6665 12.6667 1.6665 8.75002C1.6665 4.83335 4.83317 1.66669 8.74984 1.66669C12.6665 1.66669 15.8332 4.83335 15.8332 8.75002C15.8332 10.4167 15.2498 12 14.3332 13.1667ZM8.74984 3.33335C5.74984 3.33335 3.33317 5.75002 3.33317 8.75002C3.33317 11.75 5.74984 14.1667 8.74984 14.1667C10.2498 14.1667 11.5832 13.5834 12.5832 12.5834C13.5832 11.5834 14.1665 10.25 14.1665 8.75002C14.1665 5.75002 11.7498 3.33335 8.74984 3.33335Z" fill="white"/>
</mask>
<g mask="url(#mask0_402_38963)">
<rect width="20" height="20" fill="#B4B7BD"/>
</g>
</svg>
