<svg width="22" height="18" viewBox="0 0 22 18" fill="none" xmlns="http://www.w3.org/2000/svg">
<path fill-rule="evenodd" clip-rule="evenodd" d="M20.227 2.1748C20.227 2.0998 20.227 2.0248 20.1401 1.9498V1.8748C20.1401 1.7998 20.0533 1.7248 19.9664 1.6498C19.923 1.6123 19.8796 1.59355 19.8361 1.5748C19.7927 1.55605 19.7493 1.5373 19.7059 1.4998H19.619C19.5322 1.4998 19.4453 1.4998 19.3584 1.4248V1.4998C19.2716 1.4998 19.1847 1.4998 19.0979 1.5748L1.72665 6.8248C1.37922 6.8998 1.11865 7.1248 1.11865 7.4998C1.11865 7.79981 1.29236 8.0998 1.63979 8.2498L9.10942 11.0998L12.4099 17.5498C12.5837 17.8498 12.8442 17.9998 13.1917 17.9998C13.5391 17.9998 13.8865 17.7748 13.9734 17.4748L20.0533 2.4748C20.227 2.3998 20.227 2.3248 20.227 2.1748ZM16.0579 4.0498L9.63056 9.5998L4.33234 7.5748L16.0579 4.0498ZM10.8465 10.6498L13.1917 15.2248L17.2739 5.0998L10.8465 10.6498Z" fill="black"/>
<mask id="mask0_0_4237" style="mask-type:alpha" maskUnits="userSpaceOnUse" x="1" y="1" width="20" height="17">
<path fill-rule="evenodd" clip-rule="evenodd" d="M20.227 2.1748C20.227 2.0998 20.227 2.0248 20.1401 1.9498V1.8748C20.1401 1.7998 20.0533 1.7248 19.9664 1.6498C19.923 1.6123 19.8796 1.59355 19.8361 1.5748C19.7927 1.55605 19.7493 1.5373 19.7059 1.4998H19.619C19.5322 1.4998 19.4453 1.4998 19.3584 1.4248V1.4998C19.2716 1.4998 19.1847 1.4998 19.0979 1.5748L1.72665 6.8248C1.37922 6.8998 1.11865 7.1248 1.11865 7.4998C1.11865 7.79981 1.29236 8.0998 1.63979 8.2498L9.10942 11.0998L12.4099 17.5498C12.5837 17.8498 12.8442 17.9998 13.1917 17.9998C13.5391 17.9998 13.8865 17.7748 13.9734 17.4748L20.0533 2.4748C20.227 2.3998 20.227 2.3248 20.227 2.1748ZM16.0579 4.0498L9.63056 9.5998L4.33234 7.5748L16.0579 4.0498ZM10.8465 10.6498L13.1917 15.2248L17.2739 5.0998L10.8465 10.6498Z" fill="white"/>
</mask>
<g mask="url(#mask0_0_4237)">
<rect x="0.25" width="20.8455" height="18" fill="#B4B7BD"/>
</g>
</svg>
