<svg width="20" height="20" viewBox="0 0 20 20" fill="none" xmlns="http://www.w3.org/2000/svg">
<path fill-rule="evenodd" clip-rule="evenodd" d="M18.4713 6.84113C18.8035 6.92429 19.0526 7.0906 19.1357 7.42324C19.2187 7.67271 19.1357 8.00534 18.8865 8.17166L15.0662 11.9138L15.9798 17.2359C16.0628 17.5685 15.8967 17.9012 15.6476 18.0675C15.4815 18.1506 15.3154 18.2338 15.1493 18.2338H14.734L10.0002 15.7391L5.2663 18.2338C4.9341 18.4001 4.6019 18.317 4.35275 18.1506C4.1036 17.9843 3.9375 17.6517 4.02055 17.3191L4.9341 11.9969L1.11379 8.25482C0.86464 8.0885 0.78159 7.75587 0.86464 7.42324C1.03074 7.0906 1.27989 6.84113 1.61209 6.84113L6.84425 6.00955L9.25271 1.26953C9.50186 0.68742 10.4985 0.68742 10.7476 1.26953L13.1561 6.0927L18.4713 6.84113ZM13.3222 11.8306C13.3222 11.5811 13.4052 11.3317 13.5713 11.0822L16.5611 8.17166L12.4917 7.58955C12.1595 7.58955 11.9103 7.42324 11.8273 7.17376L10.0002 3.5148L8.17306 7.25692C8.00696 7.42324 7.75781 7.67271 7.50866 7.67271L3.4392 8.25482L6.42901 11.0822C6.59511 11.3317 6.67816 11.5811 6.67816 11.8306L5.9307 15.9054L9.58491 13.9927C9.83406 13.8264 10.0832 13.8264 10.3324 13.9927L13.9866 15.9054L13.3222 11.8306Z" fill="black"/>
<mask id="mask0_402_38914" style="mask-type:alpha" maskUnits="userSpaceOnUse" x="0" y="0" width="20" height="19">
<path fill-rule="evenodd" clip-rule="evenodd" d="M18.4713 6.84113C18.8035 6.92429 19.0526 7.0906 19.1357 7.42324C19.2187 7.67271 19.1357 8.00534 18.8865 8.17166L15.0662 11.9138L15.9798 17.2359C16.0628 17.5685 15.8967 17.9012 15.6476 18.0675C15.4815 18.1506 15.3154 18.2338 15.1493 18.2338H14.734L10.0002 15.7391L5.2663 18.2338C4.9341 18.4001 4.6019 18.317 4.35275 18.1506C4.1036 17.9843 3.9375 17.6517 4.02055 17.3191L4.9341 11.9969L1.11379 8.25482C0.86464 8.0885 0.78159 7.75587 0.86464 7.42324C1.03074 7.0906 1.27989 6.84113 1.61209 6.84113L6.84425 6.00955L9.25271 1.26953C9.50186 0.68742 10.4985 0.68742 10.7476 1.26953L13.1561 6.0927L18.4713 6.84113ZM13.3222 11.8306C13.3222 11.5811 13.4052 11.3317 13.5713 11.0822L16.5611 8.17166L12.4917 7.58955C12.1595 7.58955 11.9103 7.42324 11.8273 7.17376L10.0002 3.5148L8.17306 7.25692C8.00696 7.42324 7.75781 7.67271 7.50866 7.67271L3.4392 8.25482L6.42901 11.0822C6.59511 11.3317 6.67816 11.5811 6.67816 11.8306L5.9307 15.9054L9.58491 13.9927C9.83406 13.8264 10.0832 13.8264 10.3324 13.9927L13.9866 15.9054L13.3222 11.8306Z" fill="white"/>
</mask>
<g mask="url(#mask0_402_38914)">
<rect width="20" height="19.9903" fill="#FF9F43"/>
</g>
</svg>
