<svg width="22" height="18" viewBox="0 0 22 18" fill="none" xmlns="http://www.w3.org/2000/svg">
<path fill-rule="evenodd" clip-rule="evenodd" d="M11.3641 2.25C17.892 2.25 21.5475 8.4 21.7216 8.7C21.8086 8.85 21.8086 9.15 21.7216 9.3C21.5475 9.6 17.892 15.75 11.3641 15.75C5.21982 15.75 1.62018 10.3014 1.07329 9.47355L1.07328 9.47354L1.07327 9.47352C1.03914 9.42187 1.01691 9.38822 1.00668 9.375C0.919647 9.15 0.919647 8.925 1.00668 8.7C1.18076 8.4 4.83633 2.25 11.3641 2.25ZM2.74743 9C3.61781 10.2 6.66412 14.25 11.3641 14.25C16.0642 14.25 19.1105 10.2 19.9808 9C19.1105 7.8 16.0642 3.75 11.3641 3.75C6.66412 3.75 3.53077 7.8 2.74743 9ZM11.3641 6C9.44931 6 7.88264 7.35 7.88264 9C7.88264 10.65 9.44931 12 11.3641 12C13.279 12 14.8456 10.65 14.8456 9C14.8456 7.35 13.279 6 11.3641 6ZM9.62339 9C9.62339 9.825 10.4067 10.5 11.3641 10.5C12.3216 10.5 13.1049 9.825 13.1049 9C13.1049 8.175 12.3216 7.5 11.3641 7.5C10.4067 7.5 9.62339 8.175 9.62339 9Z" fill="black"/>
<mask id="mask0_0_4236" style="mask-type:alpha" maskUnits="userSpaceOnUse" x="0" y="2" width="22" height="14">
<path fill-rule="evenodd" clip-rule="evenodd" d="M11.3641 2.25C17.892 2.25 21.5475 8.4 21.7216 8.7C21.8086 8.85 21.8086 9.15 21.7216 9.3C21.5475 9.6 17.892 15.75 11.3641 15.75C5.21982 15.75 1.62018 10.3014 1.07329 9.47355L1.07328 9.47354L1.07327 9.47352C1.03914 9.42187 1.01691 9.38822 1.00668 9.375C0.919647 9.15 0.919647 8.925 1.00668 8.7C1.18076 8.4 4.83633 2.25 11.3641 2.25ZM2.74743 9C3.61781 10.2 6.66412 14.25 11.3641 14.25C16.0642 14.25 19.1105 10.2 19.9808 9C19.1105 7.8 16.0642 3.75 11.3641 3.75C6.66412 3.75 3.53077 7.8 2.74743 9ZM11.3641 6C9.44931 6 7.88264 7.35 7.88264 9C7.88264 10.65 9.44931 12 11.3641 12C13.279 12 14.8456 10.65 14.8456 9C14.8456 7.35 13.279 6 11.3641 6ZM9.62339 9C9.62339 9.825 10.4067 10.5 11.3641 10.5C12.3216 10.5 13.1049 9.825 13.1049 9C13.1049 8.175 12.3216 7.5 11.3641 7.5C10.4067 7.5 9.62339 8.175 9.62339 9Z" fill="white"/>
</mask>
<g mask="url(#mask0_0_4236)">
<rect x="0.941406" width="20.8455" height="18" fill="#B4B7BD"/>
</g>
</svg>
